<svg version="1.1" id="Layer_1" xmlns="http://www.w3.org/2000/svg" xmlns:xlink="http://www.w3.org/1999/xlink" x="0px" y="0px"
	 width="100%" viewBox="0 0 1200 1200" enable-background="new 0 0 1200 1200" xml:space="preserve">
<path fill="#F2EEE3" opacity="1.000000" stroke="none" 
	d="
M561.000000,1201.000000 
	C374.000000,1201.000000 187.500000,1201.000000 1.000000,1201.000000 
	C1.000000,801.000000 1.000000,401.000000 1.000000,1.000000 
	C401.000000,1.000000 801.000000,1.000000 1201.000000,1.000000 
	C1201.000000,401.000000 1201.000000,801.000000 1201.000000,1201.000000 
	C987.833313,1201.000000 774.666687,1201.000000 561.000000,1201.000000 
M176.450516,719.134888 
	C176.250046,719.769409 176.049561,720.403992 175.342270,721.684082 
	C175.233765,722.166443 175.030701,722.648743 175.030258,723.131165 
	C175.007538,747.875977 174.995605,772.620728 175.036697,797.365479 
	C175.037613,797.912476 175.664642,798.458496 176.918579,799.210632 
	C177.751068,799.229492 178.583572,799.264832 179.416061,799.264832 
	C460.120300,799.267029 740.824585,799.267090 1021.528809,799.255920 
	C1023.020325,799.255859 1024.511841,799.095825 1026.587158,799.123596 
	C1026.727295,798.669312 1026.989380,798.215088 1026.989868,797.760620 
	C1027.010376,773.444031 1027.021484,749.127441 1026.972900,724.810913 
	C1026.970459,723.552124 1026.438843,722.294373 1026.019897,720.370605 
	C1025.660767,719.857422 1025.301514,719.344177 1024.295288,718.334229 
	C1022.810181,718.222778 1021.325073,718.013916 1019.839966,718.013794 
	C740.674744,717.999512 461.509552,717.998474 182.344345,718.034302 
	C180.582047,718.034546 178.819809,718.553955 176.450516,719.134888 
M539.198975,621.105469 
	C557.546204,630.213379 576.119446,638.902222 594.137939,648.619690 
	C602.207031,652.971313 608.524658,652.820862 616.766907,648.685303 
	C695.374939,609.244263 774.223206,570.281982 852.983887,531.144897 
	C854.444336,530.419189 855.677795,529.236755 857.525452,527.899597 
	C855.395630,526.686951 854.144714,525.892578 852.825439,525.235352 
	C772.475403,485.207367 692.109985,445.210175 611.791870,405.118225 
	C607.529907,402.990814 603.874878,402.889435 599.543396,405.048401 
	C519.192505,445.098114 438.782959,485.029999 358.401611,525.018555 
	C356.914795,525.758240 355.620819,526.885498 353.338440,528.446411 
	C415.768433,559.580566 477.143646,590.188660 539.198975,621.105469 
z"/>
<path fill="#5A6BA2" opacity="1.000000" stroke="none" 
	d="
M538.858887,620.951111 
	C477.143646,590.188660 415.768433,559.580566 353.338440,528.446411 
	C355.620819,526.885498 356.914795,525.758240 358.401611,525.018555 
	C438.782959,485.029999 519.192505,445.098114 599.543396,405.048401 
	C603.874878,402.889435 607.529907,402.990814 611.791870,405.118225 
	C692.109985,445.210175 772.475403,485.207367 852.825439,525.235352 
	C854.144714,525.892578 855.395630,526.686951 857.525452,527.899597 
	C855.677795,529.236755 854.444336,530.419189 852.983887,531.144897 
	C774.223206,570.281982 695.374939,609.244263 616.766907,648.685303 
	C608.524658,652.820862 602.207031,652.971313 594.137939,648.619690 
	C576.119446,638.902222 557.546204,630.213379 538.858887,620.951111 
M817.729919,542.279541 
	C827.035950,537.669006 836.341980,533.058472 846.343750,528.103210 
	C844.088318,526.867737 842.693420,526.038757 841.244324,525.319031 
	C764.176758,487.036469 687.092407,448.787628 610.074219,410.406097 
	C606.738098,408.743561 604.264099,408.754242 600.949158,410.406311 
	C523.779053,448.864960 446.548248,487.201782 369.330994,525.565735 
	C367.967438,526.243225 366.632202,526.977844 364.673401,528.006287 
	C366.445648,528.957397 367.305908,529.449219 368.191528,529.890015 
	C446.128082,568.682739 524.086426,607.431946 601.942078,646.386414 
	C605.563293,648.198242 607.838501,646.873840 610.593628,645.502075 
	C679.429077,611.229553 748.262146,576.952271 817.729919,542.279541 
z"/>
<path fill="#586697" opacity="1.000000" stroke="none" 
	d="
M1024.942383,718.831055 
	C1025.301514,719.344177 1025.660767,719.857422 1026.021973,721.165405 
	C1026.017212,747.643555 1026.010254,773.327026 1026.003296,799.010437 
	C1024.511841,799.095825 1023.020325,799.255859 1021.528809,799.255920 
	C740.824585,799.267090 460.120300,799.267029 179.416061,799.264832 
	C178.583572,799.264832 177.751068,799.229492 176.459717,798.638672 
	C175.950287,772.390625 175.899689,746.714600 175.849091,721.038513 
	C176.049561,720.403992 176.250046,719.769409 177.213593,719.049316 
	C178.809799,718.975342 179.642944,718.997131 180.476089,718.997131 
	C460.468231,718.998779 740.460388,718.999207 1020.452515,718.992249 
	C1021.949158,718.992249 1023.445740,718.887085 1024.942383,718.831055 
M792.500000,798.002441 
	C867.494568,798.002441 942.489136,798.002991 1017.483704,798.001587 
	C1024.010620,798.001465 1024.875732,797.505920 1024.921021,791.162048 
	C1025.074219,769.664734 1025.079102,748.164795 1024.908325,726.667664 
	C1024.859375,720.506042 1023.964172,720.001404 1017.813049,720.001404 
	C739.832458,719.999817 461.851837,719.999695 183.871246,720.002197 
	C177.473938,720.002258 177.026154,720.414246 177.019409,726.766174 
	C176.997284,747.598022 177.006027,768.429932 177.013336,789.261780 
	C177.016357,797.845093 177.180695,798.002197 185.542297,798.002197 
	C387.528198,798.002441 589.514099,798.002441 792.500000,798.002441 
z"/>
<path fill="#E6E9F3" opacity="1.000000" stroke="none" 
	d="
M1024.618896,718.582642 
	C1023.445740,718.887085 1021.949158,718.992249 1020.452515,718.992249 
	C740.460388,718.999207 460.468231,718.998779 180.476089,718.997131 
	C179.642944,718.997131 178.809799,718.975342 177.517090,718.897339 
	C178.819809,718.553955 180.582047,718.034546 182.344345,718.034302 
	C461.509552,717.998474 740.674744,717.999512 1019.839966,718.013794 
	C1021.325073,718.013916 1022.810181,718.222778 1024.618896,718.582642 
z"/>
<path fill="#E6E9F3" opacity="1.000000" stroke="none" 
	d="
M1026.295166,799.067017 
	C1026.010254,773.327026 1026.017212,747.643555 1026.088867,721.498108 
	C1026.438843,722.294373 1026.970459,723.552124 1026.972900,724.810913 
	C1027.021484,749.127441 1027.010376,773.444031 1026.989868,797.760620 
	C1026.989380,798.215088 1026.727295,798.669312 1026.295166,799.067017 
z"/>
<path fill="#E6E9F3" opacity="1.000000" stroke="none" 
	d="
M175.595688,721.361328 
	C175.899689,746.714600 175.950287,772.390625 176.000244,798.535828 
	C175.664642,798.458496 175.037613,797.912476 175.036697,797.365479 
	C174.995605,772.620728 175.007538,747.875977 175.030258,723.131165 
	C175.030701,722.648743 175.233765,722.166443 175.595688,721.361328 
z"/>
<path fill="#E2E4EC" opacity="1.000000" stroke="none" 
	d="
M817.412781,542.477722 
	C748.262146,576.952271 679.429077,611.229553 610.593628,645.502075 
	C607.838501,646.873840 605.563293,648.198242 601.942078,646.386414 
	C524.086426,607.431946 446.128082,568.682739 368.191528,529.890015 
	C367.305908,529.449219 366.445648,528.957397 364.673401,528.006287 
	C366.632202,526.977844 367.967438,526.243225 369.330994,525.565735 
	C446.548248,487.201782 523.779053,448.864960 600.949158,410.406311 
	C604.264099,408.754242 606.738098,408.743561 610.074219,410.406097 
	C687.092407,448.787628 764.176758,487.036469 841.244324,525.319031 
	C842.693420,526.038757 844.088318,526.867737 846.343750,528.103210 
	C836.341980,533.058472 827.035950,537.669006 817.412781,542.477722 
M388.356842,536.125061 
	C459.198090,571.341064 530.043701,606.548401 600.865601,641.803345 
	C603.852539,643.290283 606.356079,643.745056 609.664185,642.094910 
	C681.201294,606.410828 752.808167,570.866638 824.397461,535.287231 
	C828.676941,533.160339 832.922791,530.965698 838.203552,528.285278 
	C835.289978,526.744995 833.312012,525.644897 831.288025,524.637085 
	C757.786011,488.037415 684.263977,451.477692 610.818176,414.765350 
	C606.970703,412.842133 604.064148,412.852661 600.220825,414.769440 
	C530.618347,449.482208 460.938019,484.038879 391.277740,518.635681 
	C385.391724,521.558960 379.529999,524.531311 372.438416,528.092834 
	C378.335022,531.084778 383.005249,533.454407 388.356842,536.125061 
z"/>
<path fill="#5165A7" opacity="1.000000" stroke="none" 
	d="
M792.000000,798.002441 
	C589.514099,798.002441 387.528198,798.002441 185.542297,798.002197 
	C177.180695,798.002197 177.016357,797.845093 177.013336,789.261780 
	C177.006027,768.429932 176.997284,747.598022 177.019409,726.766174 
	C177.026154,720.414246 177.473938,720.002258 183.871246,720.002197 
	C461.851837,719.999695 739.832458,719.999817 1017.813049,720.001404 
	C1023.964172,720.001404 1024.859375,720.506042 1024.908325,726.667664 
	C1025.079102,748.164795 1025.074219,769.664734 1024.921021,791.162048 
	C1024.875732,797.505920 1024.010620,798.001465 1017.483704,798.001587 
	C942.489136,798.002991 867.494568,798.002441 792.000000,798.002441 
M735.141357,751.523926 
	C735.141357,760.928589 735.141357,770.333252 735.141357,779.634277 
	C737.992737,779.634277 740.053833,779.634277 742.615601,779.634277 
	C742.615601,771.387939 742.615601,763.509644 742.615601,755.631348 
	C749.110352,762.237366 754.737183,769.121155 760.060913,776.231934 
	C762.433838,779.401428 764.965698,781.033508 769.178223,779.465454 
	C769.178223,766.519592 769.178223,753.467224 769.178223,740.272400 
	C766.815491,740.272400 764.730713,740.272400 762.077637,740.272400 
	C762.077637,748.565979 762.077637,756.592712 762.077637,765.859619 
	C760.245728,763.889832 759.211365,762.918701 758.340698,761.817993 
	C753.494141,755.690857 748.509583,749.660461 743.940857,743.330933 
	C741.611450,740.103638 739.074097,739.287598 735.140198,740.598694 
	C735.140198,743.935974 735.140198,747.235046 735.141357,751.523926 
M670.566345,743.851501 
	C661.888733,737.440918 652.053711,740.911133 642.509216,739.884521 
	C642.509216,753.606445 642.509216,766.629944 642.509216,780.008118 
	C647.514282,780.008118 652.153076,780.020935 656.791687,780.005493 
	C666.928650,779.971680 673.539307,775.981323 676.671997,768.025574 
	C679.940002,759.726196 677.872498,750.823608 670.566345,743.851501 
M558.815125,759.199280 
	C564.492065,750.412842 561.512512,741.861084 551.699280,740.392822 
	C545.911499,739.526855 539.888306,740.234619 533.936157,740.234619 
	C533.936157,753.670044 533.936157,766.691711 533.936157,779.774353 
	C536.623230,779.774353 538.894958,779.774353 541.749146,779.774353 
	C541.749146,774.473999 541.749146,769.400452 541.749146,762.653625 
	C544.512146,764.558960 546.434509,765.369202 547.593079,766.798523 
	C549.569641,769.236938 551.395813,771.913818 552.695312,774.759766 
	C555.200500,780.246216 559.327393,780.848755 564.976440,779.457397 
	C561.165344,773.678833 557.543091,768.186584 553.961426,762.755798 
	C555.585510,761.613770 556.941284,760.660400 558.815125,759.199280 
M807.417053,747.591248 
	C811.945435,745.302429 816.502014,745.636108 820.787598,747.989075 
	C824.919861,750.257935 826.809448,748.731506 827.907227,744.850098 
	C815.062561,734.338989 795.919739,740.424561 792.974304,755.711243 
	C791.315857,764.318359 794.410522,772.202393 801.182190,776.621216 
	C808.016296,781.080994 820.231689,781.346863 826.343079,777.069092 
	C827.211548,776.461182 828.298767,775.393921 828.336182,774.499573 
	C828.534363,769.764771 828.429260,765.017273 828.429260,760.257446 
	C823.405945,760.257446 819.146667,760.257446 814.451904,760.257446 
	C814.565308,761.937256 814.658325,763.314392 814.747559,764.636719 
	C817.110413,764.946167 819.015015,765.195618 820.835632,765.434082 
	C821.300964,772.470581 819.480713,774.420898 813.318237,773.930420 
	C807.166443,773.440918 803.302307,770.437134 801.573120,764.800415 
	C799.539551,758.171448 801.296509,752.418884 807.417053,747.591248 
M357.387726,756.981079 
	C353.303284,756.981079 349.218872,756.981079 344.722473,756.981079 
	C344.722473,750.905579 344.722473,745.635376 344.722473,740.279419 
	C342.041107,740.279419 339.793610,740.279419 337.427704,740.279419 
	C337.427704,753.619507 337.427704,766.672913 337.427704,779.679565 
	C340.045135,779.679565 342.291840,779.679565 345.150970,779.679565 
	C345.150970,773.638123 345.150970,767.913635 345.150970,762.288086 
	C351.382690,762.288086 356.985107,762.288086 363.191162,762.288086 
	C363.191162,768.280884 363.191162,774.011963 363.191162,779.711670 
	C366.067627,779.711670 368.330231,779.711670 370.731750,779.711670 
	C370.731750,766.375061 370.731750,753.341492 370.731750,740.286560 
	C368.070404,740.286560 365.812927,740.286560 363.108887,740.286560 
	C363.108887,745.822510 363.108887,751.090271 363.108887,756.674255 
	C361.248108,756.795288 359.800598,756.889343 357.387726,756.981079 
M234.125793,778.867432 
	C229.760941,767.532654 225.373550,756.206421 221.046951,744.857056 
	C219.953003,741.987427 219.091553,739.738525 214.965897,739.769897 
	C210.917679,739.800598 209.861938,741.794312 208.895096,744.818604 
	C208.237808,746.874512 207.293518,748.837463 206.509995,750.854553 
	C202.807861,760.385376 199.116882,769.920410 195.471008,779.327393 
	C205.199539,783.188110 204.607971,774.749573 207.232178,770.212463 
	C212.438889,770.212463 217.564987,770.212463 222.599701,770.212463 
	C227.174103,780.512207 227.174103,780.512207 234.125793,778.867432 
M409.892151,739.990784 
	C408.867188,740.850342 407.460571,741.512817 406.894470,742.609253 
	C405.604645,745.107422 404.708344,747.811218 403.685150,750.444275 
	C399.924713,760.121277 396.177643,769.803467 392.194183,780.080750 
	C396.179565,779.564087 400.631470,781.816711 401.560059,776.672852 
	C402.698944,770.364258 406.478119,769.274719 411.840515,769.993774 
	C412.983795,770.147156 414.193451,770.176331 415.324310,769.982056 
	C418.745605,769.394409 420.679230,770.769531 421.268677,774.147095 
	C422.290649,780.003296 425.944916,781.104797 431.467407,779.440857 
	C427.009003,767.977356 422.399200,756.600098 418.204437,745.071838 
	C416.803070,741.220459 414.956787,739.151184 409.892151,739.990784 
M610.852112,753.520996 
	C609.405151,749.796387 608.191833,745.952332 606.381775,742.413452 
	C605.767212,741.212097 603.653992,740.167175 602.212952,740.150574 
	C600.342957,740.129089 597.262451,740.705017 596.767639,741.887634 
	C591.577148,754.292725 586.799622,766.870667 581.750366,779.804138 
	C585.767517,779.703003 590.084534,781.852783 591.198547,776.327148 
	C592.311218,770.808167 595.541992,769.103943 600.762207,769.982178 
	C602.058533,770.200195 603.449280,770.183838 604.750854,769.981140 
	C608.148499,769.452087 609.814087,770.837524 610.885681,774.114563 
	C613.080627,780.826904 613.311890,780.793945 620.941589,779.365417 
	C617.647278,770.948730 614.379639,762.600342 610.852112,753.520996 
M288.017273,752.322937 
	C288.181183,757.127502 290.969849,759.897339 295.208038,761.475220 
	C297.380859,762.284058 299.604980,762.955383 301.807617,763.683838 
	C304.838898,764.686279 307.429321,766.822693 305.705597,769.817444 
	C304.546204,771.831665 301.214722,773.180542 298.653473,773.601868 
	C296.880463,773.893494 294.617706,772.323853 292.836029,771.178101 
	C290.340973,769.573608 288.418335,770.283875 287.749390,772.682861 
	C287.386383,773.984558 288.307556,776.433411 289.443756,777.225830 
	C294.059601,780.445068 299.404205,780.816467 304.719940,779.462585 
	C310.259369,778.051697 313.715851,773.336121 313.852386,767.760437 
	C313.978058,762.627441 311.498291,759.423462 305.645050,757.227417 
	C303.318512,756.354553 300.731598,755.910950 298.706360,754.591736 
	C297.326965,753.693176 295.964020,751.596191 295.999939,750.068176 
	C296.028778,748.839600 298.006531,746.948914 299.408600,746.632324 
	C301.334930,746.197327 303.903595,746.357117 305.545349,747.344971 
	C309.988220,750.018555 311.749115,748.237122 312.867554,743.740417 
	C307.480286,739.637939 301.617249,738.862305 295.455994,740.908020 
	C290.543488,742.539185 287.980713,746.217896 288.017273,752.322937 
M992.517578,739.978027 
	C982.319519,740.203918 974.819336,746.165771 973.189514,755.341675 
	C971.308472,765.931824 975.677551,775.250854 984.153809,778.728210 
	C992.589600,782.188965 1002.457092,779.997498 1006.663818,773.549316 
	C1005.410889,772.363464 1004.132141,771.153076 1002.880188,769.968140 
	C1001.791931,770.659607 1001.099915,771.113342 1000.394653,771.545410 
	C994.624756,775.080139 988.443848,774.545837 984.469360,770.173096 
	C980.228333,765.507141 979.874451,755.640503 983.764954,750.534424 
	C987.166321,746.070190 993.144470,744.783325 999.001343,747.942078 
	C1003.146301,750.177612 1004.669739,748.254333 1006.207886,744.700684 
	C1002.474304,741.379944 998.302124,739.767822 992.517578,739.978027 
M504.526794,746.028503 
	C506.782257,746.028503 509.037750,746.028503 511.700043,746.028503 
	C511.568756,743.568115 511.478302,741.872864 511.399170,740.390015 
	C500.384674,740.390015 490.011200,740.390015 479.320251,740.390015 
	C479.415955,742.418152 479.490906,744.006104 479.590424,746.115356 
	C483.534882,746.115356 487.108032,746.115356 491.374817,746.115356 
	C491.374817,757.656860 491.374817,768.679932 491.374817,779.661499 
	C494.487579,779.661499 496.887787,779.661499 499.687225,779.661499 
	C499.687225,769.519287 499.786987,759.738525 499.628052,749.962036 
	C499.578674,746.925781 500.539825,745.601562 504.526794,746.028503 
M883.141724,742.834900 
	C883.141724,755.095703 883.141724,767.356506 883.141724,779.684692 
	C891.412109,779.684692 898.983276,779.684692 906.916809,779.684692 
	C906.821716,777.624451 906.742920,775.917236 906.639587,773.678345 
	C901.178467,773.678345 896.278809,773.678345 890.916260,773.678345 
	C890.916260,762.207214 890.916260,751.292603 890.916260,738.988220 
	C887.764343,740.178040 885.465149,741.045959 883.141724,742.834900 
M929.138123,746.620300 
	C929.138123,757.572510 929.138123,768.524780 929.138123,779.742065 
	C937.260315,779.742065 944.833191,779.742065 952.587280,779.742065 
	C952.587280,777.786804 952.587280,776.081299 952.587280,773.841797 
	C947.357605,773.841797 942.445862,773.841797 937.068359,773.841797 
	C937.068359,762.390503 937.068359,751.467712 937.068359,740.366516 
	C934.207947,740.366516 931.844055,740.366516 929.137695,740.366516 
	C929.137695,742.377014 929.137695,744.019104 929.138123,746.620300 
M709.717163,777.118713 
	C709.717163,764.867554 709.717163,752.616394 709.717163,740.244873 
	C706.635437,740.244873 704.224182,740.244873 701.619995,740.244873 
	C701.619995,753.581909 701.619995,766.619080 701.619995,781.102539 
	C704.810486,779.886536 707.248413,778.957336 709.717163,777.118713 
M255.509750,752.518433 
	C255.509750,761.586914 255.509750,770.655334 255.509750,779.789795 
	C258.602417,779.789795 260.880951,779.789795 263.451355,779.789795 
	C263.451355,766.512268 263.451355,753.468445 263.451355,740.307312 
	C260.736389,740.307312 258.340210,740.307312 255.510086,740.307312 
	C255.510086,744.253601 255.510086,747.891235 255.509750,752.518433 
z"/>
<path fill="#65729D" opacity="1.000000" stroke="none" 
	d="
M388.016174,535.974609 
	C383.005249,533.454407 378.335022,531.084778 372.438416,528.092834 
	C379.529999,524.531311 385.391724,521.558960 391.277740,518.635681 
	C460.938019,484.038879 530.618347,449.482208 600.220825,414.769440 
	C604.064148,412.852661 606.970703,412.842133 610.818176,414.765350 
	C684.263977,451.477692 757.786011,488.037415 831.288025,524.637085 
	C833.312012,525.644897 835.289978,526.744995 838.203552,528.285278 
	C832.922791,530.965698 828.676941,533.160339 824.397461,535.287231 
	C752.808167,570.866638 681.201294,606.410828 609.664185,642.094910 
	C606.356079,643.745056 603.852539,643.290283 600.865601,641.803345 
	C530.043701,606.548401 459.198090,571.341064 388.016174,535.974609 
M438.665588,557.885437 
	C493.050903,584.945251 547.445984,611.985596 601.791687,639.124695 
	C604.413391,640.433960 606.369812,640.571045 609.083191,639.216248 
	C681.433960,603.091064 753.839722,567.076294 826.232666,531.035583 
	C827.935974,530.187622 829.598694,529.257996 831.874023,528.051697 
	C830.118408,527.052063 829.169983,526.448303 828.168762,525.951050 
	C755.002625,489.611298 681.841003,453.262451 608.608704,417.056610 
	C606.903931,416.213806 604.040588,416.262543 602.319702,417.113281 
	C529.088501,453.314301 455.924957,489.652252 382.763031,525.993347 
	C381.697327,526.522705 380.757233,527.304993 379.272491,528.292419 
	C399.298279,538.274780 418.644287,547.918213 438.665588,557.885437 
z"/>
<path fill="#E9E8E7" opacity="1.000000" stroke="none" 
	d="
M735.140747,751.029053 
	C735.140198,747.235046 735.140198,743.935974 735.140198,740.598694 
	C739.074097,739.287598 741.611450,740.103638 743.940857,743.330933 
	C748.509583,749.660461 753.494141,755.690857 758.340698,761.817993 
	C759.211365,762.918701 760.245728,763.889832 762.077637,765.859619 
	C762.077637,756.592712 762.077637,748.565979 762.077637,740.272400 
	C764.730713,740.272400 766.815491,740.272400 769.178223,740.272400 
	C769.178223,753.467224 769.178223,766.519592 769.178223,779.465454 
	C764.965698,781.033508 762.433838,779.401428 760.060913,776.231934 
	C754.737183,769.121155 749.110352,762.237366 742.615601,755.631348 
	C742.615601,763.509644 742.615601,771.387939 742.615601,779.634277 
	C740.053833,779.634277 737.992737,779.634277 735.141357,779.634277 
	C735.141357,770.333252 735.141357,760.928589 735.140747,751.029053 
z"/>
<path fill="#E9E9E8" opacity="1.000000" stroke="none" 
	d="
M670.861694,744.065002 
	C677.872498,750.823608 679.940002,759.726196 676.671997,768.025574 
	C673.539307,775.981323 666.928650,779.971680 656.791687,780.005493 
	C652.153076,780.020935 647.514282,780.008118 642.509216,780.008118 
	C642.509216,766.629944 642.509216,753.606445 642.509216,739.884521 
	C652.053711,740.911133 661.888733,737.440918 670.861694,744.065002 
M669.123474,754.724609 
	C665.843140,746.906494 659.762451,744.319580 650.407959,746.798401 
	C650.407959,755.692322 650.407959,764.597046 650.407959,773.447815 
	C664.887878,775.771240 671.681396,769.199097 669.123474,754.724609 
z"/>
<path fill="#E9E9E8" opacity="1.000000" stroke="none" 
	d="
M558.556152,759.453125 
	C556.941284,760.660400 555.585510,761.613770 553.961426,762.755798 
	C557.543091,768.186584 561.165344,773.678833 564.976440,779.457397 
	C559.327393,780.848755 555.200500,780.246216 552.695312,774.759766 
	C551.395813,771.913818 549.569641,769.236938 547.593079,766.798523 
	C546.434509,765.369202 544.512146,764.558960 541.749146,762.653625 
	C541.749146,769.400452 541.749146,774.473999 541.749146,779.774353 
	C538.894958,779.774353 536.623230,779.774353 533.936157,779.774353 
	C533.936157,766.691711 533.936157,753.670044 533.936157,740.234619 
	C539.888306,740.234619 545.911499,739.526855 551.699280,740.392822 
	C561.512512,741.861084 564.492065,750.412842 558.556152,759.453125 
M553.458496,750.133362 
	C550.947510,745.168396 546.563538,746.026001 542.118835,746.206665 
	C542.118835,750.581848 542.118835,754.615356 542.118835,758.604309 
	C550.582825,759.503967 553.334595,757.595520 553.458496,750.133362 
z"/>
<path fill="#E9E9E8" opacity="1.000000" stroke="none" 
	d="
M807.069824,747.765808 
	C801.296509,752.418884 799.539551,758.171448 801.573120,764.800415 
	C803.302307,770.437134 807.166443,773.440918 813.318237,773.930420 
	C819.480713,774.420898 821.300964,772.470581 820.835632,765.434082 
	C819.015015,765.195618 817.110413,764.946167 814.747559,764.636719 
	C814.658325,763.314392 814.565308,761.937256 814.451904,760.257446 
	C819.146667,760.257446 823.405945,760.257446 828.429260,760.257446 
	C828.429260,765.017273 828.534363,769.764771 828.336182,774.499573 
	C828.298767,775.393921 827.211548,776.461182 826.343079,777.069092 
	C820.231689,781.346863 808.016296,781.080994 801.182190,776.621216 
	C794.410522,772.202393 791.315857,764.318359 792.974304,755.711243 
	C795.919739,740.424561 815.062561,734.338989 827.907227,744.850098 
	C826.809448,748.731506 824.919861,750.257935 820.787598,747.989075 
	C816.502014,745.636108 811.945435,745.302429 807.069824,747.765808 
z"/>
<path fill="#EAEAE7" opacity="1.000000" stroke="none" 
	d="
M357.870422,756.982300 
	C359.800598,756.889343 361.248108,756.795288 363.108887,756.674255 
	C363.108887,751.090271 363.108887,745.822510 363.108887,740.286560 
	C365.812927,740.286560 368.070404,740.286560 370.731750,740.286560 
	C370.731750,753.341492 370.731750,766.375061 370.731750,779.711670 
	C368.330231,779.711670 366.067627,779.711670 363.191162,779.711670 
	C363.191162,774.011963 363.191162,768.280884 363.191162,762.288086 
	C356.985107,762.288086 351.382690,762.288086 345.150970,762.288086 
	C345.150970,767.913635 345.150970,773.638123 345.150970,779.679565 
	C342.291840,779.679565 340.045135,779.679565 337.427704,779.679565 
	C337.427704,766.672913 337.427704,753.619507 337.427704,740.279419 
	C339.793610,740.279419 342.041107,740.279419 344.722473,740.279419 
	C344.722473,745.635376 344.722473,750.905579 344.722473,756.981079 
	C349.218872,756.981079 353.303284,756.981079 357.870422,756.982300 
z"/>
<path fill="#E9E8E7" opacity="1.000000" stroke="none" 
	d="
M234.086014,779.231079 
	C227.174103,780.512207 227.174103,780.512207 222.599701,770.212463 
	C217.564987,770.212463 212.438889,770.212463 207.232178,770.212463 
	C204.607971,774.749573 205.199539,783.188110 195.471008,779.327393 
	C199.116882,769.920410 202.807861,760.385376 206.509995,750.854553 
	C207.293518,748.837463 208.237808,746.874512 208.895096,744.818604 
	C209.861938,741.794312 210.917679,739.800598 214.965897,739.769897 
	C219.091553,739.738525 219.953003,741.987427 221.046951,744.857056 
	C225.373550,756.206421 229.760941,767.532654 234.086014,779.231079 
M219.891083,762.075195 
	C218.366135,758.086670 216.841202,754.098145 214.820099,748.811890 
	C212.591324,755.091431 210.918594,759.804382 209.079391,764.986267 
	C212.677109,764.986267 215.483978,765.116394 218.262085,764.891418 
	C218.926666,764.837646 219.495468,763.600952 219.891083,762.075195 
z"/>
<path fill="#E9E8E7" opacity="1.000000" stroke="none" 
	d="
M410.313599,739.985474 
	C414.956787,739.151184 416.803070,741.220459 418.204437,745.071838 
	C422.399200,756.600098 427.009003,767.977356 431.467407,779.440857 
	C425.944916,781.104797 422.290649,780.003296 421.268677,774.147095 
	C420.679230,770.769531 418.745605,769.394409 415.324310,769.982056 
	C414.193451,770.176331 412.983795,770.147156 411.840515,769.993774 
	C406.478119,769.274719 402.698944,770.364258 401.560059,776.672852 
	C400.631470,781.816711 396.179565,779.564087 392.194183,780.080750 
	C396.177643,769.803467 399.924713,760.121277 403.685150,750.444275 
	C404.708344,747.811218 405.604645,745.107422 406.894470,742.609253 
	C407.460571,741.512817 408.867188,740.850342 410.313599,739.985474 
M414.941925,765.002686 
	C415.756134,764.524170 417.334778,763.791138 417.272583,763.604248 
	C415.762329,759.066711 414.077209,754.587463 412.423553,750.097656 
	C412.055542,750.191956 411.687561,750.286316 411.319550,750.380615 
	C409.593903,755.086060 407.868256,759.791504 405.953674,765.012207 
	C409.173584,765.012207 411.636353,765.012207 414.941925,765.002686 
z"/>
<path fill="#E9E8E7" opacity="1.000000" stroke="none" 
	d="
M610.982056,753.886475 
	C614.379639,762.600342 617.647278,770.948730 620.941589,779.365417 
	C613.311890,780.793945 613.080627,780.826904 610.885681,774.114563 
	C609.814087,770.837524 608.148499,769.452087 604.750854,769.981140 
	C603.449280,770.183838 602.058533,770.200195 600.762207,769.982178 
	C595.541992,769.103943 592.311218,770.808167 591.198547,776.327148 
	C590.084534,781.852783 585.767517,779.703003 581.750366,779.804138 
	C586.799622,766.870667 591.577148,754.292725 596.767639,741.887634 
	C597.262451,740.705017 600.342957,740.129089 602.212952,740.150574 
	C603.653992,740.167175 605.767212,741.212097 606.381775,742.413452 
	C608.191833,745.952332 609.405151,749.796387 610.982056,753.886475 
M602.354370,765.008301 
	C603.800415,764.935669 605.246399,764.863098 607.285706,764.760681 
	C605.360229,759.406250 603.582764,754.463562 601.469727,748.587646 
	C599.330566,754.412598 597.525024,759.328979 595.441345,765.002625 
	C597.943665,765.002625 599.702759,765.002625 602.354370,765.008301 
z"/>
<path fill="#E9E8E7" opacity="1.000000" stroke="none" 
	d="
M287.977234,751.910034 
	C287.980713,746.217896 290.543488,742.539185 295.455994,740.908020 
	C301.617249,738.862305 307.480286,739.637939 312.867554,743.740417 
	C311.749115,748.237122 309.988220,750.018555 305.545349,747.344971 
	C303.903595,746.357117 301.334930,746.197327 299.408600,746.632324 
	C298.006531,746.948914 296.028778,748.839600 295.999939,750.068176 
	C295.964020,751.596191 297.326965,753.693176 298.706360,754.591736 
	C300.731598,755.910950 303.318512,756.354553 305.645050,757.227417 
	C311.498291,759.423462 313.978058,762.627441 313.852386,767.760437 
	C313.715851,773.336121 310.259369,778.051697 304.719940,779.462585 
	C299.404205,780.816467 294.059601,780.445068 289.443756,777.225830 
	C288.307556,776.433411 287.386383,773.984558 287.749390,772.682861 
	C288.418335,770.283875 290.340973,769.573608 292.836029,771.178101 
	C294.617706,772.323853 296.880463,773.893494 298.653473,773.601868 
	C301.214722,773.180542 304.546204,771.831665 305.705597,769.817444 
	C307.429321,766.822693 304.838898,764.686279 301.807617,763.683838 
	C299.604980,762.955383 297.380859,762.284058 295.208038,761.475220 
	C290.969849,759.897339 288.181183,757.127502 287.977234,751.910034 
z"/>
<path fill="#E9E8E7" opacity="1.000000" stroke="none" 
	d="
M992.966553,739.982788 
	C998.302124,739.767822 1002.474304,741.379944 1006.207886,744.700684 
	C1004.669739,748.254333 1003.146301,750.177612 999.001343,747.942078 
	C993.144470,744.783325 987.166321,746.070190 983.764954,750.534424 
	C979.874451,755.640503 980.228333,765.507141 984.469360,770.173096 
	C988.443848,774.545837 994.624756,775.080139 1000.394653,771.545410 
	C1001.099915,771.113342 1001.791931,770.659607 1002.880188,769.968140 
	C1004.132141,771.153076 1005.410889,772.363464 1006.663818,773.549316 
	C1002.457092,779.997498 992.589600,782.188965 984.153809,778.728210 
	C975.677551,775.250854 971.308472,765.931824 973.189514,755.341675 
	C974.819336,746.165771 982.319519,740.203918 992.966553,739.982788 
z"/>
<path fill="#E3E3E6" opacity="1.000000" stroke="none" 
	d="
M504.059326,746.029175 
	C500.539825,745.601562 499.578674,746.925781 499.628052,749.962036 
	C499.786987,759.738525 499.687225,769.519287 499.687225,779.661499 
	C496.887787,779.661499 494.487579,779.661499 491.374817,779.661499 
	C491.374817,768.679932 491.374817,757.656860 491.374817,746.115356 
	C487.108032,746.115356 483.534882,746.115356 479.590424,746.115356 
	C479.490906,744.006104 479.415955,742.418152 479.320251,740.390015 
	C490.011200,740.390015 500.384674,740.390015 511.399170,740.390015 
	C511.478302,741.872864 511.568756,743.568115 511.700043,746.028503 
	C509.037750,746.028503 506.782257,746.028503 504.059326,746.029175 
z"/>
<path fill="#E9E9E8" opacity="1.000000" stroke="none" 
	d="
M883.153809,742.374390 
	C885.465149,741.045959 887.764343,740.178040 890.916260,738.988220 
	C890.916260,751.292603 890.916260,762.207214 890.916260,773.678345 
	C896.278809,773.678345 901.178467,773.678345 906.639587,773.678345 
	C906.742920,775.917236 906.821716,777.624451 906.916809,779.684692 
	C898.983276,779.684692 891.412109,779.684692 883.141724,779.684692 
	C883.141724,767.356506 883.141724,755.095703 883.153809,742.374390 
z"/>
<path fill="#E9E9E8" opacity="1.000000" stroke="none" 
	d="
M929.137939,746.140747 
	C929.137695,744.019104 929.137695,742.377014 929.137695,740.366516 
	C931.844055,740.366516 934.207947,740.366516 937.068359,740.366516 
	C937.068359,751.467712 937.068359,762.390503 937.068359,773.841797 
	C942.445862,773.841797 947.357605,773.841797 952.587280,773.841797 
	C952.587280,776.081299 952.587280,777.786804 952.587280,779.742065 
	C944.833191,779.742065 937.260315,779.742065 929.138123,779.742065 
	C929.138123,768.524780 929.138123,757.572510 929.137939,746.140747 
z"/>
<path fill="#DDDEE2" opacity="1.000000" stroke="none" 
	d="
M709.701782,777.573425 
	C707.248413,778.957336 704.810486,779.886536 701.619995,781.102539 
	C701.619995,766.619080 701.619995,753.581909 701.619995,740.244873 
	C704.224182,740.244873 706.635437,740.244873 709.717163,740.244873 
	C709.717163,752.616394 709.717163,764.867554 709.701782,777.573425 
z"/>
<path fill="#E9E8E7" opacity="1.000000" stroke="none" 
	d="
M255.509918,752.023682 
	C255.510086,747.891235 255.510086,744.253601 255.510086,740.307312 
	C258.340210,740.307312 260.736389,740.307312 263.451355,740.307312 
	C263.451355,753.468445 263.451355,766.512268 263.451355,779.789795 
	C260.880951,779.789795 258.602417,779.789795 255.509750,779.789795 
	C255.509750,770.655334 255.509750,761.586914 255.509918,752.023682 
z"/>
<path fill="#F1EDE4" opacity="1.000000" stroke="none" 
	d="
M438.327942,557.723511 
	C418.644287,547.918213 399.298279,538.274780 379.272491,528.292419 
	C380.757233,527.304993 381.697327,526.522705 382.763031,525.993347 
	C455.924957,489.652252 529.088501,453.314301 602.319702,417.113281 
	C604.040588,416.262543 606.903931,416.213806 608.608704,417.056610 
	C681.841003,453.262451 755.002625,489.611298 828.168762,525.951050 
	C829.169983,526.448303 830.118408,527.052063 831.874023,528.051697 
	C829.598694,529.257996 827.935974,530.187622 826.232666,531.035583 
	C753.839722,567.076294 681.433960,603.091064 609.083191,639.216248 
	C606.369812,640.571045 604.413391,640.433960 601.791687,639.124695 
	C547.445984,611.985596 493.050903,584.945251 438.327942,557.723511 
M514.993225,567.549316 
	C517.388794,562.427795 519.582642,557.195312 522.302307,552.252075 
	C523.124146,550.758362 525.377502,549.199524 527.019714,549.150024 
	C536.662537,548.859192 546.322144,548.880859 555.966248,549.149353 
	C557.316528,549.187012 559.406738,550.930908 559.794739,552.276978 
	C561.357178,557.697205 562.200012,563.323547 563.726746,568.756226 
	C564.176453,570.356445 565.799988,572.436035 567.242432,572.774353 
	C569.981201,573.416565 572.977600,572.960266 576.182983,572.960266 
	C575.789368,571.024841 575.597229,569.890320 575.326172,568.775024 
	C568.926392,542.444946 562.530579,516.113770 556.087341,489.794250 
	C555.581238,487.726929 555.950012,484.514679 552.407776,485.067841 
	C548.717834,485.644104 544.254456,482.729523 541.598389,488.287567 
	C529.407471,513.797974 516.928345,539.170654 504.570526,564.601379 
	C503.304504,567.206665 502.157318,569.869690 500.718811,573.023804 
	C506.326141,572.470459 512.187683,575.276428 514.993225,567.549316 
M580.234375,488.809723 
	C580.234375,490.404419 580.234375,491.999146 580.234375,494.072296 
	C588.618225,494.072296 596.707214,494.072296 605.490540,494.072296 
	C602.330383,520.580139 599.236084,546.535461 596.125854,572.625000 
	C600.245300,572.625000 603.784546,572.625000 607.458252,572.625000 
	C610.692627,546.274902 613.882812,520.284973 617.118225,493.926941 
	C625.918701,493.926941 634.180969,493.926941 642.704529,493.926941 
	C643.117615,490.836426 643.476013,488.154724 643.897461,485.001495 
	C623.345520,485.001495 603.405334,484.957153 583.466797,485.126190 
	C582.416504,485.135101 581.381531,486.953339 580.234375,488.809723 
M646.777344,572.861633 
	C661.557922,572.861633 676.338440,572.861633 691.575867,572.861633 
	C691.785278,569.802673 691.969543,567.110535 692.194519,563.824341 
	C680.516846,563.824341 669.446899,563.824341 658.125183,563.824341 
	C661.314392,537.348938 664.433472,511.455505 667.584045,485.301025 
	C663.579102,485.301025 660.010498,485.301025 656.181335,485.301025 
	C654.098938,502.247559 651.985840,518.912354 650.022827,535.594788 
	C648.584656,547.817139 647.343384,560.062561 646.777344,572.861633 
z"/>
<path fill="#5568A5" opacity="1.000000" stroke="none" 
	d="
M669.210571,755.120117 
	C671.681396,769.199097 664.887878,775.771240 650.407959,773.447815 
	C650.407959,764.597046 650.407959,755.692322 650.407959,746.798401 
	C659.762451,744.319580 665.843140,746.906494 669.210571,755.120117 
z"/>
<path fill="#5568A4" opacity="1.000000" stroke="none" 
	d="
M553.582275,750.501709 
	C553.334595,757.595520 550.582825,759.503967 542.118835,758.604309 
	C542.118835,754.615356 542.118835,750.581848 542.118835,746.206665 
	C546.563538,746.026001 550.947510,745.168396 553.582275,750.501709 
z"/>
<path fill="#5A6BA2" opacity="1.000000" stroke="none" 
	d="
M219.999695,762.491699 
	C219.495468,763.600952 218.926666,764.837646 218.262085,764.891418 
	C215.483978,765.116394 212.677109,764.986267 209.079391,764.986267 
	C210.918594,759.804382 212.591324,755.091431 214.820099,748.811890 
	C216.841202,754.098145 218.366135,758.086670 219.999695,762.491699 
z"/>
<path fill="#5A6BA2" opacity="1.000000" stroke="none" 
	d="
M414.520508,765.007446 
	C411.636353,765.012207 409.173584,765.012207 405.953674,765.012207 
	C407.868256,759.791504 409.593903,755.086060 411.319550,750.380615 
	C411.687561,750.286316 412.055542,750.191956 412.423553,750.097656 
	C414.077209,754.587463 415.762329,759.066711 417.272583,763.604248 
	C417.334778,763.791138 415.756134,764.524170 414.520508,765.007446 
z"/>
<path fill="#5A6BA2" opacity="1.000000" stroke="none" 
	d="
M601.908081,765.005493 
	C599.702759,765.002625 597.943665,765.002625 595.441345,765.002625 
	C597.525024,759.328979 599.330566,754.412598 601.469727,748.587646 
	C603.582764,754.463562 605.360229,759.406250 607.285706,764.760681 
	C605.246399,764.863098 603.800415,764.935669 601.908081,765.005493 
z"/>
<path fill="#5568A5" opacity="1.000000" stroke="none" 
	d="
M514.822388,567.886108 
	C512.187683,575.276428 506.326141,572.470459 500.718811,573.023804 
	C502.157318,569.869690 503.304504,567.206665 504.570526,564.601379 
	C516.928345,539.170654 529.407471,513.797974 541.598389,488.287567 
	C544.254456,482.729523 548.717834,485.644104 552.407776,485.067841 
	C555.950012,484.514679 555.581238,487.726929 556.087341,489.794250 
	C562.530579,516.113770 568.926392,542.444946 575.326172,568.775024 
	C575.597229,569.890320 575.789368,571.024841 576.182983,572.960266 
	C572.977600,572.960266 569.981201,573.416565 567.242432,572.774353 
	C565.799988,572.436035 564.176453,570.356445 563.726746,568.756226 
	C562.200012,563.323547 561.357178,557.697205 559.794739,552.276978 
	C559.406738,550.930908 557.316528,549.187012 555.966248,549.149353 
	C546.322144,548.880859 536.662537,548.859192 527.019714,549.150024 
	C525.377502,549.199524 523.124146,550.758362 522.302307,552.252075 
	C519.582642,557.195312 517.388794,562.427795 514.822388,567.886108 
M555.949585,539.892029 
	C555.956665,537.771423 556.340027,535.570862 555.909058,533.543335 
	C553.368591,521.589966 550.638489,509.676758 547.786072,496.917145 
	C540.889832,511.669098 534.397156,525.557617 527.655151,539.979614 
	C537.408813,539.979614 546.227905,539.979614 555.949585,539.892029 
z"/>
<path fill="#5568A4" opacity="1.000000" stroke="none" 
	d="
M580.286865,488.369507 
	C581.381531,486.953339 582.416504,485.135101 583.466797,485.126190 
	C603.405334,484.957153 623.345520,485.001495 643.897461,485.001495 
	C643.476013,488.154724 643.117615,490.836426 642.704529,493.926941 
	C634.180969,493.926941 625.918701,493.926941 617.118225,493.926941 
	C613.882812,520.284973 610.692627,546.274902 607.458252,572.625000 
	C603.784546,572.625000 600.245300,572.625000 596.125854,572.625000 
	C599.236084,546.535461 602.330383,520.580139 605.490540,494.072296 
	C596.707214,494.072296 588.618225,494.072296 580.234375,494.072296 
	C580.234375,491.999146 580.234375,490.404419 580.286865,488.369507 
z"/>
<path fill="#5568A4" opacity="1.000000" stroke="none" 
	d="
M646.395874,572.579712 
	C647.343384,560.062561 648.584656,547.817139 650.022827,535.594788 
	C651.985840,518.912354 654.098938,502.247559 656.181335,485.301025 
	C660.010498,485.301025 663.579102,485.301025 667.584045,485.301025 
	C664.433472,511.455505 661.314392,537.348938 658.125183,563.824341 
	C669.446899,563.824341 680.516846,563.824341 692.194519,563.824341 
	C691.969543,567.110535 691.785278,569.802673 691.575867,572.861633 
	C676.338440,572.861633 661.557922,572.861633 646.395874,572.579712 
z"/>
<path fill="#EAEAE7" opacity="1.000000" stroke="none" 
	d="
M555.498291,539.935791 
	C546.227905,539.979614 537.408813,539.979614 527.655151,539.979614 
	C534.397156,525.557617 540.889832,511.669098 547.786072,496.917145 
	C550.638489,509.676758 553.368591,521.589966 555.909058,533.543335 
	C556.340027,535.570862 555.956665,537.771423 555.498291,539.935791 
z"/>
</svg>