<svg version="1.1" id="Layer_1" xmlns="http://www.w3.org/2000/svg" xmlns:xlink="http://www.w3.org/1999/xlink" x="0px" y="0px"
	 width="100%" viewBox="0 0 500 500" enable-background="new 0 0 500 500" xml:space="preserve">
<path fill="none" opacity="1.000000" stroke="#000000" stroke-linecap="round" stroke-linejoin="round" stroke-width="6.000000"
	d="
M435.000000,289.000000 
	C439.083160,288.747406 443.236420,289.639557 447.250000,288.281281 
	C447.250000,259.832367 447.250000,231.415451 447.250000,202.750000 
	C316.333344,202.750000 185.666672,202.750000 54.750000,202.750000 
	C54.750000,231.332108 54.750000,259.665680 54.750000,289.000000 
	C123.163422,289.000000 191.581711,289.000000 260.000000,289.000000 
"/>
<path fill="none" opacity="1.000000" stroke="#000000" stroke-linecap="round" stroke-linejoin="round" stroke-width="5.000000"
	d="
M395.500000,225.500000 
	C394.213135,223.907074 392.916199,222.722488 390.493561,222.921921 
	C386.851593,223.221756 383.161865,223.114624 379.501617,222.961441 
	C376.869537,222.851288 375.495361,224.099915 375.553284,226.498718 
	C375.670074,231.331909 373.778107,236.955673 376.343811,240.768661 
	C378.530304,244.018112 384.002319,241.678696 388.003265,241.952377 
	C395.643616,242.475021 395.561432,242.383362 394.500000,233.500000 
	C392.500000,232.863129 390.500000,232.527176 388.500000,233.500000 
"/>
<path fill="none" opacity="1.000000" stroke="#000000" stroke-linecap="round" stroke-linejoin="round" stroke-width="4.000000"
	d="
M429.500000,278.500000 
	C425.473938,275.836090 420.929199,276.593903 416.500580,276.478271 
	C413.640533,276.403595 412.458221,277.642975 412.458221,280.500000 
	C412.458221,283.357025 413.640564,284.626007 416.500732,284.519409 
	C418.997253,284.426331 421.514374,284.666565 423.995911,284.452545 
	C426.418274,284.243652 427.689911,284.958221 428.041656,287.494232 
	C428.396088,290.049438 427.205566,291.927856 425.003571,291.868256 
	C420.832764,291.755341 416.385773,293.340729 412.500000,290.500000 
"/>
<path fill="none" opacity="1.000000" stroke="#000000" stroke-linecap="round" stroke-linejoin="round" stroke-width="5.000000"
	d="
M286.000000,253.000000 
	C280.833344,253.000000 275.664246,253.093735 270.501007,252.960938 
	C267.871185,252.893295 266.710236,253.875809 266.997650,256.500244 
	C267.015686,256.664948 266.989441,256.834106 267.001526,256.999878 
	C267.328857,261.494019 265.126038,267.082764 267.828735,270.216461 
	C270.742371,273.594757 276.509308,271.019196 281.003021,271.469971 
	C282.818085,271.652039 284.666656,271.500000 286.500000,271.500000 
"/>
<path fill="none" opacity="1.000000" stroke="#000000" stroke-linecap="round" stroke-linejoin="round" stroke-width="5.000000"
	d="
M362.500000,276.500000 
	C358.500000,276.500000 354.496246,276.605133 350.501343,276.462708 
	C347.870209,276.368927 346.899963,277.371002 346.967590,280.000824 
	C347.293549,292.678802 344.796875,292.054657 357.999756,291.964569 
	C359.489838,291.954407 361.105438,292.615570 362.500000,291.500000 
"/>
<path fill="none" opacity="1.000000" stroke="#000000" stroke-linecap="round" stroke-linejoin="round" stroke-width="5.000000"
	d="
M260.000000,234.000000 
	C263.997192,234.294998 267.983002,233.684265 272.027222,234.634171 
	C275.739380,235.506088 278.812134,232.635330 279.000000,229.000000 
	C279.234650,224.459198 277.804504,223.018417 273.000000,223.003082 
	C268.494019,222.988678 263.988007,223.000000 259.000000,223.000000 
	C259.000000,229.657654 259.000000,235.828827 259.000000,242.000000 
"/>
<path fill="none" opacity="1.000000" stroke="#000000" stroke-linecap="round" stroke-linejoin="round" stroke-width="5.000000"
	d="
M306.000000,242.000000 
	C306.000000,237.000000 305.944153,231.999130 306.021729,227.000336 
	C306.065735,224.167542 305.049713,222.798294 301.997711,222.955536 
	C298.340759,223.143921 294.660248,223.135223 291.001801,222.962143 
	C287.313843,222.787674 286.061798,224.798462 286.016815,228.000229 
	C285.951263,232.665985 286.000000,237.333328 286.000000,242.000000 
"/>
<path fill="none" opacity="1.000000" stroke="#000000" stroke-linecap="round" stroke-linejoin="round" stroke-width="5.000000"
	d="
M127.000000,242.000000 
	C127.000000,237.166672 126.889725,232.329941 127.038170,227.501175 
	C127.139839,224.194199 125.806221,222.822983 122.498535,222.966095 
	C119.005074,223.117249 115.493347,223.135040 112.001823,222.963058 
	C108.313911,222.781387 107.061813,224.798462 107.016838,228.000229 
	C106.951294,232.665985 107.000000,237.333328 107.000000,242.000000 
"/>
<path fill="none" opacity="1.000000" stroke="#000000" stroke-linecap="round" stroke-linejoin="round" stroke-width="5.000000"
	d="
M216.000000,242.000000 
	C216.000000,237.000000 215.852859,231.994064 216.054077,227.002182 
	C216.178818,223.907578 215.093628,222.780411 211.997253,222.949951 
	C208.175400,223.159256 204.329330,223.106705 200.501389,222.963165 
	C197.870087,222.864502 196.893265,223.871185 196.960922,226.501007 
	C197.093735,231.664261 197.000000,236.833328 197.000000,242.000000 
"/>
<path fill="none" opacity="1.000000" stroke="#000000" stroke-linecap="round" stroke-linejoin="round" stroke-width="5.000000"
	d="
M368.000000,223.000000 
	C367.652588,228.999222 368.843536,235.083908 367.032532,241.305206 
	C359.331696,237.222275 356.555847,228.408188 349.227509,223.631790 
	C346.888641,229.824051 348.474762,235.997894 348.000000,242.000000 
"/>
<path fill="none" opacity="1.000000" stroke="#000000" stroke-linecap="round" stroke-linejoin="round" stroke-width="5.000000"
	d="
M242.000000,253.000000 
	C242.000000,259.171173 242.000000,265.342316 242.000000,272.156616 
	C248.833328,271.653809 255.166672,272.608734 261.500000,271.500000 
"/>
<path fill="none" opacity="1.000000" stroke="#000000" stroke-linecap="round" stroke-linejoin="round" stroke-width="5.000000"
	d="
M161.000000,225.000000 
	C160.442688,223.266968 159.211212,222.911514 157.498886,222.962219 
	C153.502380,223.080566 149.490402,223.172073 145.502808,222.949554 
	C141.825775,222.744385 141.976425,225.009079 141.976425,227.500000 
	C141.976425,229.990921 141.825775,232.263046 145.502869,232.049454 
	C149.323303,231.827530 153.175964,232.167862 156.997574,231.956161 
	C161.459930,231.709000 160.958923,234.613617 161.045166,237.498657 
	C161.133362,240.449570 160.665222,242.341782 156.995331,242.061066 
	C153.349991,241.782242 149.666519,241.980469 146.000076,242.009003 
	C144.382294,242.021576 142.726456,242.220490 142.000000,240.250000 
"/>
<path fill="none" opacity="1.000000" stroke="#000000" stroke-linecap="round" stroke-linejoin="round" stroke-width="5.000000"
	d="
M216.000000,253.000000 
	C216.000000,259.171173 216.000000,265.342316 216.000000,272.000000 
	C222.657669,272.000000 228.828842,272.000000 235.000000,272.000000 
"/>
<path fill="none" opacity="1.000000" stroke="#000000" stroke-linecap="round" stroke-linejoin="round" stroke-width="4.000000"
	d="
M369.500000,276.500000 
	C369.500000,281.505554 369.500000,286.511108 369.500000,292.160126 
	C375.166656,291.658356 380.333344,292.588165 385.500000,291.500000 
"/>
<path fill="none" opacity="1.000000" stroke="#000000" stroke-linecap="round" stroke-linejoin="round" stroke-width="4.000000"
	d="
M405.500000,276.500000 
	C400.993835,276.500000 396.487640,276.500000 391.750000,276.500000 
	C391.750000,281.916656 391.750000,286.833344 391.750000,292.105103 
	C396.499146,291.621185 401.020081,292.667023 405.500000,291.500000 
"/>
<path fill="none" opacity="1.000000" stroke="#000000" stroke-linecap="round" stroke-linejoin="round" stroke-width="5.000000"
	d="
M308.500000,276.500000 
	C304.084747,276.704498 299.636475,276.033112 295.250000,276.949097 
	C295.250000,281.838959 295.250000,286.673615 295.250000,292.000000 
	C299.654144,292.000000 303.827057,292.000000 308.000000,292.000000 
"/>
<path fill="none" opacity="1.000000" stroke="#000000" stroke-linecap="round" stroke-linejoin="round" stroke-width="5.000000"
	d="
M341.000000,223.000000 
	C341.000000,229.333328 341.000000,235.666672 341.000000,242.000000 
"/>
<path fill="none" opacity="1.000000" stroke="#000000" stroke-linecap="round" stroke-linejoin="round" stroke-width="5.000000"
	d="
M135.000000,223.000000 
	C135.000000,229.333328 135.000000,235.666672 135.000000,242.000000 
"/>
<path fill="none" opacity="1.000000" stroke="#000000" stroke-linecap="round" stroke-linejoin="round" stroke-width="5.000000"
	d="
M243.000000,224.000000 
	C243.000000,230.000000 243.000000,236.000000 243.000000,242.000000 
"/>
<path fill="none" opacity="1.000000" stroke="#000000" stroke-linecap="round" stroke-linejoin="round" stroke-width="5.000000"
	d="
M187.500000,232.500000 
	C181.833328,231.698456 176.166672,231.698456 170.500000,232.500000 
"/>
<path fill="none" opacity="1.000000" stroke="#000000" stroke-linecap="round" stroke-linejoin="round" stroke-width="4.000000"
	d="
M339.500000,276.500000 
	C339.793915,282.162933 338.871216,287.861633 340.000000,293.500000 
"/>
<path fill="none" opacity="1.000000" stroke="#000000" stroke-linecap="round" stroke-linejoin="round" stroke-width="5.000000"
	d="
M125.500000,234.500000 
	C119.833336,233.698456 114.166664,233.698456 108.500000,234.500000 
"/>
<path fill="none" opacity="1.000000" stroke="#000000" stroke-linecap="round" stroke-linejoin="round" stroke-width="3.000000"
	d="
M288.500000,276.000000 
	C284.198578,277.716492 283.989319,282.442078 281.544922,285.535492 
	C280.146179,287.305664 279.829834,289.891388 277.293915,291.294281 
	C273.886780,287.825134 272.133881,283.352753 269.550934,279.466156 
	C268.445496,277.802765 267.841034,275.825623 265.500000,275.500000 
"/>
<path fill="none" opacity="1.000000" stroke="#000000" stroke-linecap="round" stroke-linejoin="round" stroke-width="5.000000"
	d="
M304.500000,234.500000 
	C298.833344,233.698456 293.166656,233.698456 287.500000,234.500000 
"/>
<path fill="none" opacity="1.000000" stroke="#000000" stroke-linecap="round" stroke-linejoin="round" stroke-width="5.000000"
	d="
M214.500000,234.000000 
	C209.000000,234.000000 203.500000,234.000000 198.000000,234.000000 
"/>
<path fill="none" opacity="1.000000" stroke="#000000" stroke-linecap="round" stroke-linejoin="round" stroke-width="4.000000"
	d="
M331.000000,284.500000 
	C326.500000,284.500000 322.000000,284.500000 317.500000,284.500000 
"/>
<path fill="none" opacity="1.000000" stroke="#000000" stroke-linecap="round" stroke-linejoin="round" stroke-width="5.000000"
	d="
M254.500000,223.000000 
	C247.333328,223.000000 240.166672,223.000000 233.000000,223.000000 
"/>
<path fill="none" opacity="1.000000" stroke="#000000" stroke-linecap="round" stroke-linejoin="round" stroke-width="4.000000"
	d="
M306.500000,284.500000 
	C303.000000,284.500000 299.500000,284.500000 296.000000,284.500000 
"/>
<path fill="none" opacity="1.000000" stroke="#000000" stroke-linecap="round" stroke-linejoin="round" stroke-width="4.000000"
	d="
M402.500000,284.500000 
	C399.166656,284.500000 395.833344,284.500000 392.500000,284.500000 
"/>
<path fill="none" opacity="1.000000" stroke="#000000" stroke-linecap="round" stroke-linejoin="round" stroke-width="5.000000"
	d="
M169.000000,223.000000 
	C169.000000,229.333328 169.000000,235.666672 169.000000,242.000000 
"/>
<path fill="none" opacity="1.000000" stroke="#000000" stroke-linecap="round" stroke-linejoin="round" stroke-width="5.000000"
	d="
M189.000000,223.000000 
	C189.000000,229.333328 189.000000,235.666672 189.000000,242.000000 
"/>
<path fill="none" opacity="1.000000" stroke="#000000" stroke-linecap="round" stroke-linejoin="round" stroke-width="4.000000"
	d="
M316.500000,276.500000 
	C316.356812,282.167358 317.167877,287.862793 316.000000,293.500000 
"/>
<path fill="none" opacity="1.000000" stroke="#000000" stroke-linecap="round" stroke-linejoin="round" stroke-width="5.000000"
	d="
M332.000000,277.000000 
	C332.000000,282.500000 332.000000,288.000000 332.000000,293.500000 
"/>
<path fill="none" opacity="1.000000" stroke="#000000" stroke-linecap="round" stroke-linejoin="round" stroke-width="5.000000"
	d="
M316.000000,223.000000 
	C314.844940,223.178268 314.035645,223.843536 314.024261,225.000244 
	C313.970032,230.504745 314.000000,236.010071 314.000000,242.000000 
	C319.655975,242.000000 324.828522,241.957367 329.999756,242.020432 
	C332.150452,242.046661 333.146271,241.149399 333.003113,238.999786 
	C332.980988,238.667938 333.016266,238.332413 332.997589,238.000137 
	C332.735260,233.336823 335.011597,227.152023 332.143463,224.367188 
	C328.376831,220.709900 321.818512,223.570251 316.500000,223.000000 
"/>
</svg>